<svg xmlns="http://www.w3.org/2000/svg" xmlns:xlink="http://www.w3.org/1999/xlink" width="500" zoomAndPan="magnify" viewBox="0 0 375 374.999991" height="500" preserveAspectRatio="xMidYMid meet" version="1.0"><defs><g/></defs><g fill="#000000" fill-opacity="1"><g transform="translate(22.387671, 364.097872)"><g><path d="M 82.023438 -27.183594 C 88.222656 -27.183594 92.515625 -32.429688 90.128906 -37.195312 C 86.792969 -43.875 87.746094 -50.550781 89.175781 -57.226562 C 92.039062 -67.71875 96.808594 -77.730469 101.574219 -87.746094 C 112.542969 -113.019531 127.328125 -136.386719 143.066406 -159.277344 C 175.96875 -208.398438 203.152344 -262.761719 233.195312 -314.265625 C 234.148438 -315.21875 234.625 -316.648438 234.148438 -318.082031 C 233.671875 -319.511719 232.71875 -320.464844 231.289062 -320.941406 C 226.996094 -323.328125 226.519531 -325.710938 221.75 -324.28125 C 216.503906 -322.847656 213.167969 -318.082031 210.78125 -313.3125 C 196 -283.746094 180.261719 -253.703125 162.140625 -226.519531 C 154.03125 -213.644531 145.449219 -201.246094 136.867188 -188.84375 C 135.910156 -187.890625 127.328125 -187.890625 126.851562 -188.367188 C 118.742188 -199.335938 106.820312 -200.289062 94.421875 -201.246094 C 86.792969 -201.722656 80.117188 -199.8125 73.917969 -195.523438 C 56.273438 -183.601562 40.058594 -170.722656 25.75 -155.464844 C 10.015625 -138.296875 -0.953125 -119.21875 -10.015625 -98.238281 C -13.351562 -90.128906 -15.261719 -81.070312 -13.351562 -72.007812 C -10.96875 -58.179688 -0.953125 -45.78125 17.167969 -54.363281 C 21.460938 -56.75 25.273438 -59.609375 28.613281 -62.472656 L 66.285156 -93.46875 C 69.148438 -95.851562 72.007812 -98.238281 74.871094 -100.144531 C 75.824219 -101.097656 78.207031 -101.097656 79.164062 -100.144531 C 79.640625 -99.667969 79.640625 -95.851562 79.164062 -94.898438 C 69.625 -70.101562 68.195312 -65.332031 68.195312 -47.210938 C 68.195312 -39.105469 73.917969 -27.183594 82.023438 -27.183594 Z M 22.414062 -82.976562 C 20.507812 -81.070312 5.246094 -72.484375 3.339844 -77.253906 C 1.90625 -80.59375 12.398438 -101.574219 13.828125 -104.914062 C 22.414062 -123.511719 34.8125 -139.726562 49.597656 -153.554688 C 59.132812 -162.140625 68.671875 -170.246094 79.164062 -177.398438 C 87.746094 -183.121094 96.808594 -185.03125 104.4375 -180.738281 C 107.296875 -179.308594 113.5 -173.585938 115.882812 -170.246094 C 116.359375 -169.769531 116.359375 -169.292969 116.359375 -168.816406 C 116.359375 -168.339844 115.882812 -167.863281 115.40625 -167.386719 L 101.574219 -149.742188 C 100.144531 -147.832031 96.808594 -146.402344 94.421875 -144.972656 C 90.609375 -142.589844 87.746094 -138.296875 84.410156 -134.957031 L 67.71875 -120.652344 L 56.273438 -110.636719 C 53.410156 -107.777344 51.027344 -104.914062 48.164062 -103.007812 C 38.628906 -97.285156 30.996094 -89.652344 22.414062 -82.976562 Z M 22.414062 -82.976562 "/></g></g></g><g fill="#000000" fill-opacity="1"><g transform="translate(161.160228, 364.097872)"><g><path d="M 163.09375 -161.1875 C 160.710938 -162.617188 158.324219 -163.09375 155.941406 -161.1875 C 150.695312 -157.847656 144.496094 -155.464844 140.203125 -151.171875 C 126.375 -138.296875 112.542969 -125.421875 99.191406 -112.066406 C 97.285156 -110.636719 95.375 -108.730469 93.46875 -106.820312 C 79.640625 -92.992188 70.101562 -85.363281 84.886719 -109.683594 C 89.175781 -116.835938 92.992188 -125.421875 97.285156 -133.050781 C 101.574219 -142.109375 106.34375 -150.695312 110.160156 -159.753906 C 113.5 -167.386719 112.066406 -168.816406 105.390625 -172.15625 C 102.054688 -174.0625 96.332031 -167.863281 92.992188 -165 L 59.132812 -130.1875 C 49.117188 -119.699219 39.582031 -108.730469 29.566406 -98.238281 C 27.183594 -95.851562 14.785156 -81.070312 14.304688 -89.652344 C 13.828125 -94.421875 20.507812 -106.820312 21.460938 -109.207031 C 26.707031 -120.175781 31.949219 -131.144531 37.195312 -141.632812 L 51.980469 -167.386719 C 57.703125 -177.878906 59.132812 -180.738281 48.640625 -185.984375 C 47.210938 -186.460938 45.78125 -187.414062 44.351562 -187.890625 C 40.058594 -189.324219 36.242188 -188.367188 35.289062 -184.078125 C 30.996094 -166.433594 19.550781 -152.601562 12.398438 -136.386719 C 4.292969 -118.265625 -5.246094 -100.621094 -10.492188 -81.070312 C -13.351562 -70.578125 -12.398438 -61.519531 -6.675781 -52.933594 C -3.339844 -47.6875 -1.429688 -45.78125 3.339844 -49.597656 C 9.0625 -53.886719 13.828125 -58.65625 18.597656 -63.425781 C 29.089844 -75.824219 41.964844 -88.222656 52.457031 -100.621094 C 53.886719 -103.007812 63.902344 -113.976562 68.195312 -118.265625 C 64.378906 -110.160156 56.273438 -84.886719 54.839844 -78.6875 L 52.457031 -68.671875 C 50.550781 -62.472656 53.410156 -56.75 55.796875 -50.074219 C 56.273438 -48.640625 60.085938 -48.164062 62.472656 -48.164062 C 70.101562 -48.164062 74.394531 -54.839844 78.207031 -60.085938 C 92.515625 -79.640625 113.019531 -97.285156 130.1875 -114.453125 C 141.15625 -125.421875 154.03125 -134.957031 165.476562 -145.449219 C 173.585938 -153.554688 173.585938 -155.464844 163.09375 -161.1875 Z M 163.09375 -161.1875 "/></g></g></g><g fill="#000000" fill-opacity="1"><g transform="translate(319.008079, 364.097872)"><g><path d="M 23.367188 -55.796875 C 29.089844 -60.5625 31.949219 -65.332031 30.519531 -73.441406 C 25.75 -87.269531 1.429688 -95.851562 0 -76.300781 C 0 -71.054688 1.429688 -65.332031 5.246094 -61.996094 C 12.398438 -54.839844 18.121094 -51.503906 23.367188 -55.796875 Z M 23.367188 -55.796875 "/></g></g></g></svg>