<svg xmlns="http://www.w3.org/2000/svg" xmlns:xlink="http://www.w3.org/1999/xlink" width="500" zoomAndPan="magnify" viewBox="0 0 375 374.999991" height="500" preserveAspectRatio="xMidYMid meet" version="1.0"><defs><g/></defs><g fill="#000000" fill-opacity="1"><g transform="translate(56.164523, 279.888078)"><g><path d="M 57.855469 -19.171875 C 62.230469 -19.171875 65.257812 -22.875 63.574219 -26.238281 C 61.21875 -30.945312 61.890625 -35.65625 62.902344 -40.363281 C 64.917969 -47.765625 68.285156 -54.828125 71.648438 -61.890625 C 79.382812 -79.71875 89.8125 -96.203125 100.910156 -112.347656 C 124.121094 -146.992188 143.292969 -185.339844 164.484375 -221.667969 C 165.15625 -222.339844 165.496094 -223.351562 165.15625 -224.359375 C 164.820312 -225.367188 164.148438 -226.042969 163.140625 -226.378906 C 160.113281 -228.058594 159.777344 -229.742188 156.414062 -228.730469 C 152.710938 -227.722656 150.359375 -224.359375 148.675781 -220.996094 C 138.25 -200.140625 127.148438 -178.949219 114.367188 -159.777344 C 108.648438 -150.695312 102.59375 -141.949219 96.539062 -133.203125 C 95.867188 -132.53125 89.8125 -132.53125 89.472656 -132.867188 C 83.757812 -140.601562 75.347656 -141.277344 66.601562 -141.949219 C 61.21875 -142.285156 56.511719 -140.9375 52.136719 -137.910156 C 39.691406 -129.503906 28.253906 -120.421875 18.164062 -109.65625 C 7.0625 -97.546875 -0.671875 -84.09375 -7.0625 -69.292969 C -9.417969 -63.574219 -10.765625 -57.183594 -9.417969 -50.792969 C -7.738281 -41.039062 -0.671875 -32.292969 12.109375 -38.347656 C 15.136719 -40.027344 17.828125 -42.046875 20.183594 -44.066406 L 46.753906 -65.929688 C 48.773438 -67.609375 50.792969 -69.292969 52.808594 -70.636719 C 53.484375 -71.3125 55.164062 -71.3125 55.835938 -70.636719 C 56.175781 -70.300781 56.175781 -67.609375 55.835938 -66.9375 C 49.109375 -49.445312 48.101562 -46.082031 48.101562 -33.300781 C 48.101562 -27.582031 52.136719 -19.171875 57.855469 -19.171875 Z M 15.808594 -58.527344 C 14.464844 -57.183594 3.699219 -51.128906 2.355469 -54.492188 C 1.34375 -56.847656 8.746094 -71.648438 9.753906 -74 C 15.808594 -87.121094 24.554688 -98.554688 34.984375 -108.3125 C 41.710938 -114.367188 48.4375 -120.085938 55.835938 -125.128906 C 61.890625 -129.167969 68.285156 -130.511719 73.664062 -127.484375 C 75.683594 -126.476562 80.054688 -122.4375 81.738281 -120.085938 C 82.074219 -119.746094 82.074219 -119.410156 82.074219 -119.074219 C 82.074219 -118.738281 81.738281 -118.402344 81.402344 -118.066406 L 71.648438 -105.621094 C 70.636719 -104.273438 68.285156 -103.265625 66.601562 -102.257812 C 63.910156 -100.574219 61.890625 -97.546875 59.539062 -95.191406 L 47.765625 -85.101562 L 39.691406 -78.039062 C 37.671875 -76.019531 35.992188 -74 33.972656 -72.65625 C 27.246094 -68.621094 21.863281 -63.238281 15.808594 -58.527344 Z M 15.808594 -58.527344 "/></g></g></g><g fill="#000000" fill-opacity="1"><g transform="translate(154.04816, 279.888078)"><g><path d="M 115.039062 -113.691406 C 113.355469 -114.703125 111.675781 -115.039062 109.992188 -113.691406 C 106.292969 -111.339844 101.921875 -109.65625 98.894531 -106.628906 C 89.136719 -97.546875 79.382812 -88.464844 69.964844 -79.046875 C 68.621094 -78.039062 67.273438 -76.691406 65.929688 -75.347656 C 56.175781 -65.59375 49.445312 -60.210938 59.875 -77.367188 C 62.902344 -82.410156 65.59375 -88.464844 68.621094 -93.847656 C 71.648438 -100.238281 75.011719 -106.292969 77.703125 -112.683594 C 80.054688 -118.066406 79.046875 -119.074219 74.339844 -121.429688 C 71.984375 -122.773438 67.945312 -118.402344 65.59375 -116.382812 L 41.710938 -91.828125 C 34.644531 -84.429688 27.917969 -76.691406 20.855469 -69.292969 C 19.171875 -67.609375 10.425781 -57.183594 10.089844 -63.238281 C 9.753906 -66.601562 14.464844 -75.347656 15.136719 -77.027344 C 18.835938 -84.765625 22.535156 -92.5 26.238281 -99.902344 L 36.664062 -118.066406 C 40.699219 -125.464844 41.710938 -127.484375 34.308594 -131.183594 C 33.300781 -131.519531 32.292969 -132.195312 31.28125 -132.53125 C 28.253906 -133.539062 25.5625 -132.867188 24.890625 -129.839844 C 21.863281 -117.394531 13.792969 -107.636719 8.746094 -96.203125 C 3.027344 -83.417969 -3.699219 -70.972656 -7.398438 -57.183594 C -9.417969 -49.78125 -8.746094 -43.390625 -4.710938 -37.335938 C -2.355469 -33.636719 -1.007812 -32.292969 2.355469 -34.984375 C 6.390625 -38.011719 9.753906 -41.375 13.117188 -44.738281 C 20.519531 -53.484375 29.601562 -62.230469 37 -70.972656 C 38.011719 -72.65625 45.074219 -80.390625 48.101562 -83.417969 C 45.410156 -77.703125 39.691406 -59.875 38.683594 -55.5 L 37 -48.4375 C 35.65625 -44.066406 37.671875 -40.027344 39.355469 -35.320312 C 39.691406 -34.308594 42.382812 -33.972656 44.066406 -33.972656 C 49.445312 -33.972656 52.472656 -38.683594 55.164062 -42.382812 C 65.257812 -56.175781 79.71875 -68.621094 91.828125 -80.730469 C 99.566406 -88.464844 108.648438 -95.191406 116.71875 -102.59375 C 122.4375 -108.3125 122.4375 -109.65625 115.039062 -113.691406 Z M 115.039062 -113.691406 "/></g></g></g><g fill="#000000" fill-opacity="1"><g transform="translate(265.386612, 279.888078)"><g><path d="M 16.480469 -39.355469 C 20.519531 -42.71875 22.535156 -46.082031 21.527344 -51.800781 C 18.164062 -61.554688 1.007812 -67.609375 0 -53.820312 C 0 -50.121094 1.007812 -46.082031 3.699219 -43.726562 C 8.746094 -38.683594 12.78125 -36.328125 16.480469 -39.355469 Z M 16.480469 -39.355469 "/></g></g></g><g fill="#000000" fill-opacity="1"><g transform="translate(6.886321, 309.76329)"><g><path d="M 8.382812 0.460938 C 10.933594 0.460938 12.753906 -0.960938 13.65625 -2.5625 L 13.65625 0 L 17.066406 0 L 17.066406 -20.855469 L 13.496094 -20.855469 L 13.496094 -14.324219 L 13.570312 -12.738281 C 12.769531 -14.175781 10.917969 -15.6875 8.429688 -15.6875 C 3.984375 -15.6875 1.023438 -12.058594 1.023438 -7.613281 C 1.023438 -3.140625 4.058594 0.460938 8.382812 0.460938 Z M 9.035156 -2.84375 C 6.414062 -2.84375 4.546875 -4.917969 4.546875 -7.613281 C 4.546875 -10.382812 6.503906 -12.367188 9.035156 -12.367188 C 11.554688 -12.367188 13.523438 -10.28125 13.523438 -7.613281 C 13.523438 -4.917969 11.539062 -2.84375 9.035156 -2.84375 Z M 9.035156 -2.84375 "/></g></g></g><g fill="#000000" fill-opacity="1"><g transform="translate(35.411134, 309.76329)"><g><path d="M 9.019531 0.460938 C 13.71875 0.460938 17.078125 -3.125 17.078125 -7.613281 C 17.078125 -12.074219 13.71875 -15.6875 9.035156 -15.6875 C 4.371094 -15.6875 1.023438 -12.058594 1.023438 -7.613281 C 1.023438 -3.140625 4.382812 0.460938 9.019531 0.460938 Z M 9.050781 -2.875 C 6.488281 -2.875 4.578125 -4.859375 4.578125 -7.613281 C 4.578125 -10.355469 6.488281 -12.367188 9.050781 -12.367188 C 11.613281 -12.367188 13.523438 -10.355469 13.523438 -7.613281 C 13.523438 -4.859375 11.613281 -2.875 9.050781 -2.875 Z M 9.050781 -2.875 "/></g></g></g><g fill="#000000" fill-opacity="1"><g transform="translate(62.884632, 309.76329)"><g><path d="M 5.6875 0 L 5.6875 -20.871094 L 2.101562 -20.871094 L 2.101562 0 Z M 5.6875 0 "/></g></g></g><g fill="#000000" fill-opacity="1"><g transform="translate(80.037461, 309.76329)"><g><path d="M 8.886719 0.460938 C 12.796875 0.460938 15.671875 -2.042969 16.457031 -5.570312 L 12.8125 -5.570312 C 12.148438 -3.671875 10.636719 -2.859375 8.902344 -2.859375 C 6.710938 -2.859375 4.578125 -4.605469 4.578125 -7.613281 C 4.578125 -10.605469 6.695312 -12.355469 8.902344 -12.355469 C 10.636719 -12.355469 12.132812 -11.539062 12.8125 -9.851562 L 16.472656 -9.851562 C 15.613281 -13.199219 12.8125 -15.6875 8.886719 -15.6875 C 4.339844 -15.6875 1.023438 -12.042969 1.023438 -7.613281 C 1.023438 -3.171875 4.339844 0.460938 8.886719 0.460938 Z M 8.886719 0.460938 "/></g></g></g><g fill="#000000" fill-opacity="1"><g transform="translate(106.666947, 309.76329)"><g><path d="M 3.867188 -17.597656 C 5.316406 -17.597656 6.132812 -18.5 6.132812 -19.65625 C 6.132812 -20.769531 5.316406 -21.703125 3.882812 -21.703125 C 2.472656 -21.703125 1.660156 -20.769531 1.660156 -19.65625 C 1.660156 -18.515625 2.488281 -17.597656 3.867188 -17.597656 Z M 5.6875 0 L 5.6875 -15.226562 L 2.101562 -15.226562 L 2.101562 0 Z M 5.6875 0 "/></g></g></g><g fill="#000000" fill-opacity="1"><g transform="translate(123.819782, 309.76329)"><g><path d="M 8.503906 0 L 11.71875 -9.867188 L 11.730469 -9.867188 L 14.902344 0 L 18.21875 0 L 23.359375 -15.226562 L 19.582031 -15.226562 L 16.605469 -5.734375 L 16.25 -4.667969 L 16.207031 -4.667969 L 15.894531 -5.671875 L 13.109375 -15.226562 L 10.457031 -15.226562 L 7.570312 -5.570312 L 7.289062 -4.667969 L 7.242188 -4.667969 L 6.976562 -5.570312 L 4 -15.226562 L 0.148438 -15.226562 L 5.273438 0 Z M 8.503906 0 "/></g></g></g><g fill="#000000" fill-opacity="1"><g transform="translate(156.683127, 309.76329)"><g><path d="M 16.589844 -7.878906 C 16.589844 -12.074219 13.507812 -15.6875 8.917969 -15.6875 C 4.339844 -15.6875 1.023438 -12.058594 1.023438 -7.613281 C 1.023438 -3.171875 4.339844 0.460938 8.917969 0.460938 C 12.710938 0.460938 15.421875 -2.042969 16.191406 -4.785156 L 12.28125 -4.785156 C 11.761719 -3.496094 10.652344 -2.742188 8.84375 -2.742188 C 6.738281 -2.742188 4.992188 -4.175781 4.621094 -6.664062 L 16.515625 -6.664062 C 16.574219 -7.230469 16.589844 -7.496094 16.589844 -7.878906 Z M 4.769531 -9.4375 C 5.378906 -11.582031 7.09375 -12.5625 8.902344 -12.5625 C 11.007812 -12.5625 12.785156 -11.140625 12.933594 -9.4375 Z M 4.769531 -9.4375 "/></g></g></g><g fill="#000000" fill-opacity="1"><g transform="translate(183.460686, 309.76329)"><g><path d="M 8.382812 0.460938 C 10.933594 0.460938 12.753906 -0.960938 13.65625 -2.5625 L 13.65625 0 L 17.066406 0 L 17.066406 -20.855469 L 13.496094 -20.855469 L 13.496094 -14.324219 L 13.570312 -12.738281 C 12.769531 -14.175781 10.917969 -15.6875 8.429688 -15.6875 C 3.984375 -15.6875 1.023438 -12.058594 1.023438 -7.613281 C 1.023438 -3.140625 4.058594 0.460938 8.382812 0.460938 Z M 9.035156 -2.84375 C 6.414062 -2.84375 4.546875 -4.917969 4.546875 -7.613281 C 4.546875 -10.382812 6.503906 -12.367188 9.035156 -12.367188 C 11.554688 -12.367188 13.523438 -10.28125 13.523438 -7.613281 C 13.523438 -4.917969 11.539062 -2.84375 9.035156 -2.84375 Z M 9.035156 -2.84375 "/></g></g></g><g fill="#000000" fill-opacity="1"><g transform="translate(211.985489, 309.76329)"><g><path d="M 8.382812 0.460938 C 10.933594 0.460938 12.753906 -0.960938 13.65625 -2.5625 L 13.65625 0 L 17.066406 0 L 17.066406 -20.855469 L 13.496094 -20.855469 L 13.496094 -14.324219 L 13.570312 -12.738281 C 12.769531 -14.175781 10.917969 -15.6875 8.429688 -15.6875 C 3.984375 -15.6875 1.023438 -12.058594 1.023438 -7.613281 C 1.023438 -3.140625 4.058594 0.460938 8.382812 0.460938 Z M 9.035156 -2.84375 C 6.414062 -2.84375 4.546875 -4.917969 4.546875 -7.613281 C 4.546875 -10.382812 6.503906 -12.367188 9.035156 -12.367188 C 11.554688 -12.367188 13.523438 -10.28125 13.523438 -7.613281 C 13.523438 -4.917969 11.539062 -2.84375 9.035156 -2.84375 Z M 9.035156 -2.84375 "/></g></g></g><g fill="#000000" fill-opacity="1"><g transform="translate(240.510305, 309.76329)"><g><path d="M 3.867188 -17.597656 C 5.316406 -17.597656 6.132812 -18.5 6.132812 -19.65625 C 6.132812 -20.769531 5.316406 -21.703125 3.882812 -21.703125 C 2.472656 -21.703125 1.660156 -20.769531 1.660156 -19.65625 C 1.660156 -18.515625 2.488281 -17.597656 3.867188 -17.597656 Z M 5.6875 0 L 5.6875 -15.226562 L 2.101562 -15.226562 L 2.101562 0 Z M 5.6875 0 "/></g></g></g><g fill="#000000" fill-opacity="1"><g transform="translate(257.663141, 309.76329)"><g><path d="M 5.6875 0 L 5.6875 -7.777344 C 5.6875 -10.753906 7.613281 -12.382812 9.71875 -12.382812 C 11.878906 -12.382812 13.242188 -11.152344 13.242188 -8.132812 L 13.242188 0 L 16.828125 0 L 16.828125 -8.207031 C 16.828125 -12.992188 14.796875 -15.6875 10.710938 -15.6875 C 8.371094 -15.6875 6.382812 -14.515625 5.511719 -12.859375 L 5.511719 -15.226562 L 2.101562 -15.226562 L 2.101562 0 Z M 5.6875 0 "/></g></g></g><g fill="#000000" fill-opacity="1"><g transform="translate(285.84739, 309.76329)"><g><path d="M 9.082031 5.777344 C 14.25 5.777344 17.078125 2.53125 17.078125 -1.746094 L 17.078125 -15.226562 L 13.671875 -15.226562 L 13.671875 -12.636719 C 12.871094 -14.207031 10.992188 -15.6875 8.265625 -15.6875 C 4.027344 -15.6875 1.023438 -12.058594 1.023438 -7.925781 C 1.023438 -3.777344 4.058594 -0.371094 8.382812 -0.371094 C 10.652344 -0.371094 12.621094 -1.257812 13.65625 -3.257812 L 13.65625 -1.703125 C 13.65625 0.679688 12.382812 2.753906 9.066406 2.753906 C 6.355469 2.753906 5.332031 1.585938 5.023438 -0.015625 L 1.644531 -0.015625 C 1.746094 2.875 3.882812 5.777344 9.082031 5.777344 Z M 9.050781 -3.480469 C 6.53125 -3.480469 4.578125 -5.363281 4.578125 -7.941406 C 4.578125 -10.5625 6.53125 -12.367188 9.050781 -12.367188 C 11.570312 -12.367188 13.523438 -10.308594 13.523438 -7.941406 C 13.523438 -5.511719 11.554688 -3.480469 9.050781 -3.480469 Z M 9.050781 -3.480469 "/></g></g></g><g fill="#000000" fill-opacity="1"><g transform="translate(314.401821, 309.76329)"><g><path d="M 3.984375 0.371094 C 5.257812 0.371094 6.101562 -0.503906 6.101562 -1.601562 C 6.101562 -2.667969 5.257812 -3.570312 4 -3.570312 C 2.726562 -3.570312 1.894531 -2.667969 1.894531 -1.601562 C 1.894531 -0.519531 2.742188 0.371094 3.984375 0.371094 Z M 3.984375 0.371094 "/></g></g></g><g fill="#000000" fill-opacity="1"><g transform="translate(331.791572, 309.76329)"><g><path d="M 3.867188 -17.597656 C 5.316406 -17.597656 6.132812 -18.5 6.132812 -19.65625 C 6.132812 -20.769531 5.316406 -21.703125 3.882812 -21.703125 C 2.472656 -21.703125 1.660156 -20.769531 1.660156 -19.65625 C 1.660156 -18.515625 2.488281 -17.597656 3.867188 -17.597656 Z M 5.6875 0 L 5.6875 -15.226562 L 2.101562 -15.226562 L 2.101562 0 Z M 5.6875 0 "/></g></g></g><g fill="#000000" fill-opacity="1"><g transform="translate(348.944408, 309.76329)"><g><path d="M 8.382812 0.460938 C 10.933594 0.460938 12.753906 -0.960938 13.65625 -2.5625 L 13.65625 0 L 17.066406 0 L 17.066406 -20.855469 L 13.496094 -20.855469 L 13.496094 -14.324219 L 13.570312 -12.738281 C 12.769531 -14.175781 10.917969 -15.6875 8.429688 -15.6875 C 3.984375 -15.6875 1.023438 -12.058594 1.023438 -7.613281 C 1.023438 -3.140625 4.058594 0.460938 8.382812 0.460938 Z M 9.035156 -2.84375 C 6.414062 -2.84375 4.546875 -4.917969 4.546875 -7.613281 C 4.546875 -10.382812 6.503906 -12.367188 9.035156 -12.367188 C 11.554688 -12.367188 13.523438 -10.28125 13.523438 -7.613281 C 13.523438 -4.917969 11.539062 -2.84375 9.035156 -2.84375 Z M 9.035156 -2.84375 "/></g></g></g></svg>