<svg xmlns="http://www.w3.org/2000/svg" xmlns:xlink="http://www.w3.org/1999/xlink" width="500" zoomAndPan="magnify" viewBox="0 0 375 374.999991" height="500" preserveAspectRatio="xMidYMid meet" version="1.0"><defs><g/></defs><g fill="#ffffff" fill-opacity="1"><g transform="translate(28.906048, 356.642831)"><g><path d="M 80.691406 -26.742188 C 86.789062 -26.742188 91.011719 -31.902344 88.667969 -36.59375 C 85.382812 -43.160156 86.320312 -49.726562 87.730469 -56.296875 C 90.542969 -66.617188 95.234375 -76.46875 99.925781 -86.320312 C 110.714844 -111.183594 125.257812 -134.171875 140.742188 -156.691406 C 173.113281 -205.011719 199.851562 -258.496094 229.40625 -309.160156 C 230.347656 -310.097656 230.816406 -311.507812 230.347656 -312.914062 C 229.875 -314.320312 228.9375 -315.257812 227.53125 -315.730469 C 223.308594 -318.074219 222.839844 -320.421875 218.148438 -319.011719 C 212.988281 -317.605469 209.703125 -312.914062 207.359375 -308.222656 C 192.816406 -279.136719 177.332031 -249.582031 159.507812 -222.839844 C 151.53125 -210.171875 143.085938 -197.976562 134.640625 -185.777344 C 133.703125 -184.839844 125.257812 -184.839844 124.789062 -185.308594 C 116.816406 -196.097656 105.085938 -197.039062 92.890625 -197.976562 C 85.382812 -198.445312 78.816406 -196.566406 72.714844 -192.347656 C 55.359375 -180.617188 39.40625 -167.949219 25.332031 -152.9375 C 9.851562 -136.050781 -0.9375 -117.285156 -9.851562 -96.640625 C -13.136719 -88.667969 -15.011719 -79.753906 -13.136719 -70.839844 C -10.789062 -57.234375 -0.9375 -45.035156 16.890625 -53.480469 C 21.109375 -55.828125 24.863281 -58.640625 28.148438 -61.457031 L 65.210938 -91.949219 C 68.023438 -94.296875 70.839844 -96.640625 73.65625 -98.519531 C 74.59375 -99.457031 76.9375 -99.457031 77.875 -98.519531 C 78.347656 -98.050781 78.347656 -94.296875 77.875 -93.359375 C 68.492188 -68.964844 67.085938 -64.273438 67.085938 -46.445312 C 67.085938 -38.46875 72.714844 -26.742188 80.691406 -26.742188 Z M 22.050781 -81.628906 C 20.171875 -79.753906 5.160156 -71.308594 3.285156 -76 C 1.875 -79.285156 12.199219 -99.925781 13.605469 -103.210938 C 22.050781 -121.507812 34.246094 -137.457031 48.789062 -151.0625 C 58.171875 -159.507812 67.554688 -167.480469 77.875 -174.519531 C 86.320312 -180.148438 95.234375 -182.023438 102.742188 -177.800781 C 105.554688 -176.394531 111.65625 -170.765625 114 -167.480469 C 114.46875 -167.011719 114.46875 -166.542969 114.46875 -166.074219 C 114.46875 -165.605469 114 -165.136719 113.53125 -164.667969 L 99.925781 -147.308594 C 98.519531 -145.433594 95.234375 -144.023438 92.890625 -142.617188 C 89.136719 -140.273438 86.320312 -136.050781 83.039062 -132.765625 L 66.617188 -118.691406 L 55.359375 -108.839844 C 52.542969 -106.023438 50.199219 -103.210938 47.382812 -101.332031 C 38 -95.703125 30.492188 -88.199219 22.050781 -81.628906 Z M 22.050781 -81.628906 "/></g></g></g><g fill="#ffffff" fill-opacity="1"><g transform="translate(165.424472, 356.642831)"><g><path d="M 160.445312 -158.566406 C 158.097656 -159.976562 155.753906 -160.445312 153.40625 -158.566406 C 148.246094 -155.285156 142.148438 -152.9375 137.925781 -148.714844 C 124.320312 -136.050781 110.714844 -123.382812 97.582031 -110.246094 C 95.703125 -108.839844 93.828125 -106.964844 91.949219 -105.085938 C 78.347656 -91.480469 68.964844 -83.976562 83.507812 -107.902344 C 87.730469 -114.9375 91.480469 -123.382812 95.703125 -130.890625 C 99.925781 -139.800781 104.617188 -148.246094 108.371094 -157.160156 C 111.65625 -164.667969 110.246094 -166.074219 103.679688 -169.359375 C 100.394531 -171.234375 94.765625 -165.136719 91.480469 -162.320312 L 58.171875 -128.074219 C 48.320312 -117.753906 38.9375 -106.964844 29.085938 -96.640625 C 26.742188 -94.296875 14.542969 -79.753906 14.074219 -88.199219 C 13.605469 -92.890625 20.171875 -105.085938 21.109375 -107.433594 C 26.273438 -118.222656 31.433594 -129.011719 36.59375 -139.332031 L 51.136719 -164.667969 C 56.765625 -174.988281 58.171875 -177.800781 47.851562 -182.964844 C 46.445312 -183.433594 45.035156 -184.371094 43.628906 -184.839844 C 39.40625 -186.246094 35.65625 -185.308594 34.714844 -181.085938 C 30.492188 -163.730469 19.234375 -150.125 12.199219 -134.171875 C 4.222656 -116.347656 -5.160156 -98.988281 -10.320312 -79.753906 C -13.136719 -69.433594 -12.199219 -60.519531 -6.566406 -52.074219 C -3.285156 -46.914062 -1.40625 -45.035156 3.285156 -48.789062 C 8.914062 -53.011719 13.605469 -57.703125 18.296875 -62.394531 C 28.617188 -74.59375 41.285156 -86.789062 51.605469 -98.988281 C 53.011719 -101.332031 62.863281 -112.125 67.085938 -116.347656 C 63.332031 -108.371094 55.359375 -83.507812 53.949219 -77.40625 L 51.605469 -67.554688 C 49.726562 -61.457031 52.542969 -55.828125 54.890625 -49.257812 C 55.359375 -47.851562 59.109375 -47.382812 61.457031 -47.382812 C 68.964844 -47.382812 73.183594 -53.949219 76.9375 -59.109375 C 91.011719 -78.347656 111.183594 -95.703125 128.074219 -112.59375 C 138.863281 -123.382812 151.53125 -132.765625 162.789062 -143.085938 C 170.765625 -151.0625 170.765625 -152.9375 160.445312 -158.566406 Z M 160.445312 -158.566406 "/></g></g></g><g fill="#ffffff" fill-opacity="1"><g transform="translate(320.708344, 356.642831)"><g><path d="M 22.988281 -54.890625 C 28.617188 -59.582031 31.433594 -64.273438 30.023438 -72.246094 C 25.332031 -85.851562 1.40625 -94.296875 0 -75.0625 C 0 -69.902344 1.40625 -64.273438 5.160156 -60.988281 C 12.199219 -53.949219 17.828125 -50.667969 22.988281 -54.890625 Z M 22.988281 -54.890625 "/></g></g></g></svg>