<svg xmlns="http://www.w3.org/2000/svg" xmlns:xlink="http://www.w3.org/1999/xlink" width="500" zoomAndPan="magnify" viewBox="0 0 375 374.999991" height="500" preserveAspectRatio="xMidYMid meet" version="1.0"><defs><g/></defs><g fill="#ffffff" fill-opacity="1"><g transform="translate(56.508508, 269.989669)"><g><path d="M 57.703125 -19.121094 C 62.066406 -19.121094 65.085938 -22.8125 63.40625 -26.167969 C 61.058594 -30.863281 61.730469 -35.5625 62.738281 -40.257812 C 64.75 -47.640625 68.105469 -54.683594 71.460938 -61.730469 C 79.175781 -79.511719 89.574219 -95.949219 100.648438 -112.054688 C 123.796875 -146.609375 142.917969 -184.855469 164.054688 -221.085938 C 164.726562 -221.757812 165.0625 -222.765625 164.726562 -223.773438 C 164.390625 -224.777344 163.71875 -225.449219 162.710938 -225.785156 C 159.691406 -227.460938 159.359375 -229.140625 156.003906 -228.132812 C 152.3125 -227.125 149.964844 -223.773438 148.285156 -220.417969 C 137.886719 -199.617188 126.816406 -178.480469 114.066406 -159.359375 C 108.363281 -150.300781 102.324219 -141.578125 96.285156 -132.855469 C 95.613281 -132.183594 89.574219 -132.183594 89.238281 -132.519531 C 83.535156 -140.234375 75.148438 -140.90625 66.425781 -141.578125 C 61.058594 -141.910156 56.363281 -140.570312 52 -137.550781 C 39.585938 -129.164062 28.179688 -120.105469 18.117188 -109.371094 C 7.046875 -97.292969 -0.671875 -83.871094 -7.046875 -69.109375 C -9.394531 -63.40625 -10.734375 -57.035156 -9.394531 -50.660156 C -7.714844 -40.929688 -0.671875 -32.207031 12.078125 -38.246094 C 15.097656 -39.921875 17.78125 -41.9375 20.128906 -43.949219 L 46.632812 -65.757812 C 48.644531 -67.433594 50.660156 -69.109375 52.671875 -70.453125 C 53.34375 -71.125 55.019531 -71.125 55.691406 -70.453125 C 56.027344 -70.117188 56.027344 -67.433594 55.691406 -66.761719 C 48.980469 -49.316406 47.976562 -45.960938 47.976562 -33.214844 C 47.976562 -27.511719 52 -19.121094 57.703125 -19.121094 Z M 15.769531 -58.375 C 14.425781 -57.035156 3.691406 -50.996094 2.347656 -54.347656 C 1.34375 -56.699219 8.722656 -71.460938 9.730469 -73.808594 C 15.769531 -86.890625 24.492188 -98.296875 34.890625 -108.027344 C 41.601562 -114.066406 48.308594 -119.769531 55.691406 -124.800781 C 61.730469 -128.828125 68.105469 -130.171875 73.472656 -127.152344 C 75.484375 -126.144531 79.847656 -122.117188 81.523438 -119.769531 C 81.859375 -119.433594 81.859375 -119.097656 81.859375 -118.761719 C 81.859375 -118.429688 81.523438 -118.09375 81.1875 -117.757812 L 71.460938 -105.34375 C 70.453125 -104 68.105469 -102.996094 66.425781 -101.988281 C 63.742188 -100.3125 61.730469 -97.292969 59.382812 -94.945312 L 47.640625 -84.878906 L 39.585938 -77.832031 C 37.574219 -75.820312 35.898438 -73.808594 33.882812 -72.464844 C 27.175781 -68.441406 21.808594 -63.070312 15.769531 -58.375 Z M 15.769531 -58.375 "/></g></g></g><g fill="#ffffff" fill-opacity="1"><g transform="translate(154.135768, 269.989669)"><g><path d="M 114.738281 -113.394531 C 113.058594 -114.402344 111.382812 -114.738281 109.707031 -113.394531 C 106.015625 -111.046875 101.652344 -109.371094 98.632812 -106.351562 C 88.90625 -97.292969 79.175781 -88.234375 69.78125 -78.839844 C 68.441406 -77.832031 67.097656 -76.492188 65.757812 -75.148438 C 56.027344 -65.421875 49.316406 -60.050781 59.71875 -77.164062 C 62.738281 -82.195312 65.421875 -88.234375 68.441406 -93.601562 C 71.460938 -99.976562 74.8125 -106.015625 77.5 -112.390625 C 79.847656 -117.757812 78.839844 -118.761719 74.144531 -121.113281 C 71.792969 -122.453125 67.769531 -118.09375 65.421875 -116.078125 L 41.601562 -91.589844 C 34.554688 -84.207031 27.84375 -76.492188 20.800781 -69.109375 C 19.121094 -67.433594 10.398438 -57.035156 10.066406 -63.070312 C 9.730469 -66.425781 14.425781 -75.148438 15.097656 -76.828125 C 18.789062 -84.542969 22.476562 -92.257812 26.167969 -99.640625 L 36.570312 -117.757812 C 40.59375 -125.136719 41.601562 -127.152344 34.21875 -130.839844 C 33.214844 -131.175781 32.207031 -131.847656 31.199219 -132.183594 C 28.179688 -133.1875 25.496094 -132.519531 24.828125 -129.5 C 21.808594 -117.085938 13.753906 -107.355469 8.722656 -95.949219 C 3.019531 -83.203125 -3.691406 -70.789062 -7.378906 -57.035156 C -9.394531 -49.652344 -8.722656 -43.277344 -4.695312 -37.238281 C -2.347656 -33.550781 -1.007812 -32.207031 2.347656 -34.890625 C 6.375 -37.910156 9.730469 -41.265625 13.085938 -44.621094 C 20.464844 -53.34375 29.523438 -62.066406 36.902344 -70.789062 C 37.910156 -72.464844 44.957031 -80.183594 47.976562 -83.203125 C 45.292969 -77.5 39.585938 -59.71875 38.582031 -55.355469 L 36.902344 -48.308594 C 35.5625 -43.949219 37.574219 -39.921875 39.253906 -35.226562 C 39.585938 -34.21875 42.273438 -33.882812 43.949219 -33.882812 C 49.316406 -33.882812 52.335938 -38.582031 55.019531 -42.273438 C 65.085938 -56.027344 79.511719 -68.441406 91.589844 -80.515625 C 99.304688 -88.234375 108.363281 -94.945312 116.414062 -102.324219 C 122.117188 -108.027344 122.117188 -109.371094 114.738281 -113.394531 Z M 114.738281 -113.394531 "/></g></g></g><g fill="#ffffff" fill-opacity="1"><g transform="translate(265.182603, 269.989669)"><g><path d="M 16.4375 -39.253906 C 20.464844 -42.605469 22.476562 -45.960938 21.472656 -51.664062 C 18.117188 -61.394531 1.007812 -67.433594 0 -53.679688 C 0 -49.988281 1.007812 -45.960938 3.691406 -43.613281 C 8.722656 -38.582031 12.75 -36.234375 16.4375 -39.253906 Z M 16.4375 -39.253906 "/></g></g></g><g fill="#ffffff" fill-opacity="1"><g transform="translate(7.359372, 299.786656)"><g><path d="M 8.363281 0.457031 C 10.902344 0.457031 12.71875 -0.960938 13.621094 -2.554688 L 13.621094 0 L 17.019531 0 L 17.019531 -20.800781 L 13.460938 -20.800781 L 13.460938 -14.285156 L 13.535156 -12.707031 C 12.734375 -14.140625 10.886719 -15.644531 8.40625 -15.644531 C 3.972656 -15.644531 1.019531 -12.027344 1.019531 -7.59375 C 1.019531 -3.132812 4.046875 0.457031 8.363281 0.457031 Z M 9.011719 -2.835938 C 6.398438 -2.835938 4.535156 -4.90625 4.535156 -7.59375 C 4.535156 -10.355469 6.484375 -12.335938 9.011719 -12.335938 C 11.523438 -12.335938 13.488281 -10.253906 13.488281 -7.59375 C 13.488281 -4.90625 11.507812 -2.835938 9.011719 -2.835938 Z M 9.011719 -2.835938 "/></g></g></g><g fill="#ffffff" fill-opacity="1"><g transform="translate(35.809473, 299.786656)"><g><path d="M 8.996094 0.457031 C 13.679688 0.457031 17.035156 -3.117188 17.035156 -7.59375 C 17.035156 -12.042969 13.679688 -15.644531 9.011719 -15.644531 C 4.359375 -15.644531 1.019531 -12.027344 1.019531 -7.59375 C 1.019531 -3.132812 4.375 0.457031 8.996094 0.457031 Z M 9.027344 -2.867188 C 6.472656 -2.867188 4.566406 -4.847656 4.566406 -7.59375 C 4.566406 -10.328125 6.472656 -12.335938 9.027344 -12.335938 C 11.582031 -12.335938 13.488281 -10.328125 13.488281 -7.59375 C 13.488281 -4.847656 11.582031 -2.867188 9.027344 -2.867188 Z M 9.027344 -2.867188 "/></g></g></g><g fill="#ffffff" fill-opacity="1"><g transform="translate(63.211013, 299.786656)"><g><path d="M 5.671875 0 L 5.671875 -20.816406 L 2.097656 -20.816406 L 2.097656 0 Z M 5.671875 0 "/></g></g></g><g fill="#ffffff" fill-opacity="1"><g transform="translate(80.318915, 299.786656)"><g><path d="M 8.863281 0.457031 C 12.765625 0.457031 15.632812 -2.039062 16.414062 -5.554688 L 12.78125 -5.554688 C 12.113281 -3.664062 10.609375 -2.851562 8.878906 -2.851562 C 6.691406 -2.851562 4.566406 -4.59375 4.566406 -7.59375 C 4.566406 -10.578125 6.679688 -12.320312 8.878906 -12.320312 C 10.609375 -12.320312 12.101562 -11.507812 12.78125 -9.824219 L 16.429688 -9.824219 C 15.570312 -13.164062 12.78125 -15.644531 8.863281 -15.644531 C 4.328125 -15.644531 1.019531 -12.011719 1.019531 -7.59375 C 1.019531 -3.160156 4.328125 0.457031 8.863281 0.457031 Z M 8.863281 0.457031 "/></g></g></g><g fill="#ffffff" fill-opacity="1"><g transform="translate(106.878654, 299.786656)"><g><path d="M 3.855469 -17.550781 C 5.304688 -17.550781 6.117188 -18.453125 6.117188 -19.605469 C 6.117188 -20.714844 5.304688 -21.644531 3.871094 -21.644531 C 2.46875 -21.644531 1.65625 -20.714844 1.65625 -19.605469 C 1.65625 -18.46875 2.480469 -17.550781 3.855469 -17.550781 Z M 5.671875 0 L 5.671875 -15.1875 L 2.097656 -15.1875 L 2.097656 0 Z M 5.671875 0 "/></g></g></g><g fill="#ffffff" fill-opacity="1"><g transform="translate(123.986563, 299.786656)"><g><path d="M 8.480469 0 L 11.6875 -9.839844 L 11.703125 -9.839844 L 14.863281 0 L 18.171875 0 L 23.300781 -15.1875 L 19.53125 -15.1875 L 16.5625 -5.71875 L 16.207031 -4.652344 L 16.164062 -4.652344 L 15.851562 -5.660156 L 13.074219 -15.1875 L 10.429688 -15.1875 L 7.550781 -5.554688 L 7.269531 -4.652344 L 7.226562 -4.652344 L 6.957031 -5.554688 L 3.988281 -15.1875 L 0.148438 -15.1875 L 5.257812 0 Z M 8.480469 0 "/></g></g></g><g fill="#ffffff" fill-opacity="1"><g transform="translate(156.763833, 299.786656)"><g><path d="M 16.546875 -7.859375 C 16.546875 -12.042969 13.472656 -15.644531 8.894531 -15.644531 C 4.328125 -15.644531 1.019531 -12.027344 1.019531 -7.59375 C 1.019531 -3.160156 4.328125 0.457031 8.894531 0.457031 C 12.675781 0.457031 15.378906 -2.039062 16.148438 -4.773438 L 12.246094 -4.773438 C 11.730469 -3.488281 10.621094 -2.734375 8.820312 -2.734375 C 6.722656 -2.734375 4.980469 -4.167969 4.609375 -6.648438 L 16.472656 -6.648438 C 16.53125 -7.210938 16.546875 -7.476562 16.546875 -7.859375 Z M 4.757812 -9.410156 C 5.363281 -11.554688 7.078125 -12.527344 8.878906 -12.527344 C 10.976562 -12.527344 12.75 -11.109375 12.898438 -9.410156 Z M 4.757812 -9.410156 "/></g></g></g><g fill="#ffffff" fill-opacity="1"><g transform="translate(183.471256, 299.786656)"><g><path d="M 8.363281 0.457031 C 10.902344 0.457031 12.71875 -0.960938 13.621094 -2.554688 L 13.621094 0 L 17.019531 0 L 17.019531 -20.800781 L 13.460938 -20.800781 L 13.460938 -14.285156 L 13.535156 -12.707031 C 12.734375 -14.140625 10.886719 -15.644531 8.40625 -15.644531 C 3.972656 -15.644531 1.019531 -12.027344 1.019531 -7.59375 C 1.019531 -3.132812 4.046875 0.457031 8.363281 0.457031 Z M 9.011719 -2.835938 C 6.398438 -2.835938 4.535156 -4.90625 4.535156 -7.59375 C 4.535156 -10.355469 6.484375 -12.335938 9.011719 -12.335938 C 11.523438 -12.335938 13.488281 -10.253906 13.488281 -7.59375 C 13.488281 -4.90625 11.507812 -2.835938 9.011719 -2.835938 Z M 9.011719 -2.835938 "/></g></g></g><g fill="#ffffff" fill-opacity="1"><g transform="translate(211.921348, 299.786656)"><g><path d="M 8.363281 0.457031 C 10.902344 0.457031 12.71875 -0.960938 13.621094 -2.554688 L 13.621094 0 L 17.019531 0 L 17.019531 -20.800781 L 13.460938 -20.800781 L 13.460938 -14.285156 L 13.535156 -12.707031 C 12.734375 -14.140625 10.886719 -15.644531 8.40625 -15.644531 C 3.972656 -15.644531 1.019531 -12.027344 1.019531 -7.59375 C 1.019531 -3.132812 4.046875 0.457031 8.363281 0.457031 Z M 9.011719 -2.835938 C 6.398438 -2.835938 4.535156 -4.90625 4.535156 -7.59375 C 4.535156 -10.355469 6.484375 -12.335938 9.011719 -12.335938 C 11.523438 -12.335938 13.488281 -10.253906 13.488281 -7.59375 C 13.488281 -4.90625 11.507812 -2.835938 9.011719 -2.835938 Z M 9.011719 -2.835938 "/></g></g></g><g fill="#ffffff" fill-opacity="1"><g transform="translate(240.371452, 299.786656)"><g><path d="M 3.855469 -17.550781 C 5.304688 -17.550781 6.117188 -18.453125 6.117188 -19.605469 C 6.117188 -20.714844 5.304688 -21.644531 3.871094 -21.644531 C 2.46875 -21.644531 1.65625 -20.714844 1.65625 -19.605469 C 1.65625 -18.46875 2.480469 -17.550781 3.855469 -17.550781 Z M 5.671875 0 L 5.671875 -15.1875 L 2.097656 -15.1875 L 2.097656 0 Z M 5.671875 0 "/></g></g></g><g fill="#ffffff" fill-opacity="1"><g transform="translate(257.479361, 299.786656)"><g><path d="M 5.671875 0 L 5.671875 -7.757812 C 5.671875 -10.726562 7.59375 -12.351562 9.691406 -12.351562 C 11.847656 -12.351562 13.207031 -11.125 13.207031 -8.109375 L 13.207031 0 L 16.785156 0 L 16.785156 -8.183594 C 16.785156 -12.957031 14.757812 -15.644531 10.683594 -15.644531 C 8.347656 -15.644531 6.367188 -14.480469 5.496094 -12.824219 L 5.496094 -15.1875 L 2.097656 -15.1875 L 2.097656 0 Z M 5.671875 0 "/></g></g></g><g fill="#ffffff" fill-opacity="1"><g transform="translate(285.58979, 299.786656)"><g><path d="M 9.058594 5.761719 C 14.210938 5.761719 17.035156 2.527344 17.035156 -1.742188 L 17.035156 -15.1875 L 13.636719 -15.1875 L 13.636719 -12.601562 C 12.839844 -14.167969 10.960938 -15.644531 8.242188 -15.644531 C 4.019531 -15.644531 1.019531 -12.027344 1.019531 -7.902344 C 1.019531 -3.765625 4.046875 -0.371094 8.363281 -0.371094 C 10.621094 -0.371094 12.585938 -1.253906 13.621094 -3.25 L 13.621094 -1.699219 C 13.621094 0.679688 12.351562 2.746094 9.042969 2.746094 C 6.339844 2.746094 5.320312 1.582031 5.007812 -0.015625 L 1.640625 -0.015625 C 1.742188 2.867188 3.871094 5.761719 9.058594 5.761719 Z M 9.027344 -3.472656 C 6.515625 -3.472656 4.566406 -5.347656 4.566406 -7.917969 C 4.566406 -10.535156 6.515625 -12.335938 9.027344 -12.335938 C 11.539062 -12.335938 13.488281 -10.28125 13.488281 -7.917969 C 13.488281 -5.496094 11.523438 -3.472656 9.027344 -3.472656 Z M 9.027344 -3.472656 "/></g></g></g><g fill="#ffffff" fill-opacity="1"><g transform="translate(314.069432, 299.786656)"><g><path d="M 3.972656 0.371094 C 5.246094 0.371094 6.085938 -0.503906 6.085938 -1.59375 C 6.085938 -2.660156 5.246094 -3.5625 3.988281 -3.5625 C 2.71875 -3.5625 1.890625 -2.660156 1.890625 -1.59375 C 1.890625 -0.515625 2.734375 0.371094 3.972656 0.371094 Z M 3.972656 0.371094 "/></g></g></g><g fill="#ffffff" fill-opacity="1"><g transform="translate(331.413637, 299.786656)"><g><path d="M 3.855469 -17.550781 C 5.304688 -17.550781 6.117188 -18.453125 6.117188 -19.605469 C 6.117188 -20.714844 5.304688 -21.644531 3.871094 -21.644531 C 2.46875 -21.644531 1.65625 -20.714844 1.65625 -19.605469 C 1.65625 -18.46875 2.480469 -17.550781 3.855469 -17.550781 Z M 5.671875 0 L 5.671875 -15.1875 L 2.097656 -15.1875 L 2.097656 0 Z M 5.671875 0 "/></g></g></g><g fill="#ffffff" fill-opacity="1"><g transform="translate(348.521546, 299.786656)"><g><path d="M 8.363281 0.457031 C 10.902344 0.457031 12.71875 -0.960938 13.621094 -2.554688 L 13.621094 0 L 17.019531 0 L 17.019531 -20.800781 L 13.460938 -20.800781 L 13.460938 -14.285156 L 13.535156 -12.707031 C 12.734375 -14.140625 10.886719 -15.644531 8.40625 -15.644531 C 3.972656 -15.644531 1.019531 -12.027344 1.019531 -7.59375 C 1.019531 -3.132812 4.046875 0.457031 8.363281 0.457031 Z M 9.011719 -2.835938 C 6.398438 -2.835938 4.535156 -4.90625 4.535156 -7.59375 C 4.535156 -10.355469 6.484375 -12.335938 9.011719 -12.335938 C 11.523438 -12.335938 13.488281 -10.253906 13.488281 -7.59375 C 13.488281 -4.90625 11.507812 -2.835938 9.011719 -2.835938 Z M 9.011719 -2.835938 "/></g></g></g></svg>